<svg width="30" height="24" viewBox="0 0 30 24" fill="none" xmlns="http://www.w3.org/2000/svg">
<path d="M23.291 24C22.6408 24 21.9993 23.7612 21.5072 23.3007L15.2594 17.5012C10.7515 19.4116 6.15573 21.3561 1.82357 23.0789C1.14694 23.3433 0.373649 23.0363 0.101241 22.3796C-0.179954 21.7229 0.145184 20.9723 0.82181 20.708C4.80248 19.1216 9.02919 17.3477 13.1944 15.5823L9.96064 12.5717C8.78314 14.2262 7.73745 15.9661 6.75327 17.8765C6.42813 18.5076 5.62848 18.7634 4.97822 18.4479C4.32796 18.1323 4.06434 17.3562 4.38947 16.7251C5.49667 14.5759 6.69175 12.6228 8.02743 10.7807L4.2313 7.25835C3.41408 6.49931 3.19439 5.365 3.6777 4.36716C4.161 3.36931 5.1979 2.81495 6.32268 2.94288C8.90616 3.24138 11.4896 3.61664 14.0643 4.06013C15.3209 2.90024 16.6918 1.74887 18.1944 0.563398C18.871 0.0346248 19.7673 -0.135947 20.6021 0.111382C21.4281 0.358712 22.0608 0.9813 22.3069 1.77446C22.7374 3.18168 23.1417 4.59743 23.5019 6.0217C25.0573 6.40549 26.6039 6.80634 28.1329 7.24129C29.2049 7.5398 29.9343 8.4353 29.9958 9.5099C30.0573 10.5845 29.4422 11.5568 28.4141 11.9747C27.2893 12.4352 26.1557 12.9043 25.0134 13.3819C25.4352 16.0172 25.7251 18.6696 25.8921 21.3305C25.9536 22.371 25.3649 23.3262 24.3983 23.7612C24.0468 23.9232 23.6689 24 23.2998 24H23.291ZM17.8868 16.384L23.2383 21.3561C23.0889 19.0364 22.8429 16.7336 22.4914 14.4309C20.9536 15.0791 19.407 15.7358 17.878 16.384H17.8868ZM11.5336 10.4907L15.813 14.465C17.8693 13.5866 19.9694 12.6996 22.052 11.8212C21.8236 10.5845 21.5687 9.35639 21.2875 8.1368C19.1786 7.64214 17.052 7.20718 14.9167 6.81486C13.6777 8.0174 12.5617 9.23699 11.5336 10.4907ZM24.1522 8.83614C24.2928 9.48432 24.4246 10.124 24.5476 10.7807C25.4527 10.4054 26.349 10.0301 27.2366 9.67195C26.2084 9.38197 25.1803 9.10906 24.1522 8.84467V8.83614ZM6.15572 5.49293L9.60915 8.69969C10.2946 7.87241 11.0063 7.06219 11.7708 6.26903C9.89914 5.97053 8.02743 5.71467 6.14694 5.49293H6.15572ZM17.2805 4.64007C18.3877 4.86181 19.4861 5.09209 20.5845 5.33089C20.3385 4.4098 20.0661 3.48871 19.7849 2.56762C18.9062 3.26697 18.0714 3.94925 17.2805 4.63154V4.64007Z" fill="#E7470B"/>
</svg>
